<svg xmlns="http://www.w3.org/2000/svg" viewBox="0 0 512 512" style="height: 512px; width: 512px;"><defs><filter id="shadow-2" height="300%" width="300%" x="-100%" y="-100%"><feFlood flood-color="rgba(255, 255, 255, 1)" result="flood"></feFlood><feComposite in="flood" in2="SourceGraphic" operator="atop" result="composite"></feComposite><feGaussianBlur in="composite" stdDeviation="15" result="blur"></feGaussianBlur><feOffset dx="0" dy="0" result="offset"></feOffset><feComposite in="SourceGraphic" in2="offset" operator="over"></feComposite></filter><filter id="shadow-3" height="300%" width="300%" x="-100%" y="-100%"><feFlood flood-color="rgba(255, 255, 255, 1)" result="flood"></feFlood><feComposite in="flood" in2="SourceGraphic" operator="atop" result="composite"></feComposite><feGaussianBlur in="composite" stdDeviation="15" result="blur"></feGaussianBlur><feOffset dx="0" dy="0" result="offset"></feOffset><feComposite in="SourceGraphic" in2="offset" operator="over"></feComposite></filter><radialGradient id="lord-berandas-diagram-gradient-0"><stop offset="0%" stop-color="#b98c72" stop-opacity="1"></stop><stop offset="100%" stop-color="#8d6239" stop-opacity="1"></stop></radialGradient></defs><path d="M5 5h502v502H5z" fill="url(#lord-berandas-diagram-gradient-0)" stroke="#e28436" stroke-opacity="1" stroke-width="5"></path><g class="" transform="translate(0,3)" style=""><path d="M146.24 120.334c-23.036 0-52.223 9.79-76.38 31.71-22.6 20.513-40.276 52.013-42.4 94.956H22v18h36v-18H45.48c2.032-38.054 17.27-64.194 36.48-81.627 20.686-18.774 46.56-27.04 64.28-27.04s43.56 8.264 64.233 27.038c15.496 14.073 28.41 33.83 33.908 60.94 3.676-1.484 7.677-2.31 11.86-2.31 2.078 0 4.11.208 6.082.594-6.12-31.684-21.29-55.785-39.748-72.547-24.138-21.92-53.298-31.713-76.334-31.713zm-9 40.088V247H130v18h36v-18h-10.76v-86.578h-18zm119 81.578c-7.838 0-14 6.16-14 14s6.162 14 14 14c7.84 0 14-6.16 14-14s-6.16-14-14-14zM76 247v18h36v-18H76zm108 0v18h36v-18h-36zm108 0v18h36v-18h-36zm54 0v18h11.24v86.078h18V265H382v-18h-36zm54 0v18h36v-18h-36zm54 0v18h13c-2.032 38.053-17.27 64.192-36.48 81.625-20.686 18.774-46.56 27.04-64.28 27.04-17.718 0-43.56-8.263-64.232-27.038-15.496-14.073-28.41-33.827-33.908-60.938-3.676 1.484-7.677 2.31-11.86 2.31-2.078 0-4.11-.208-6.082-.594 6.12 31.683 21.292 55.785 39.75 72.547 24.138 21.92 53.297 31.713 76.332 31.713 23.036 0 52.224-9.79 76.38-31.71 22.6-20.513 40.276-52.014 42.4-94.956H490v-18h-36z" fill="#ffffff" fill-opacity="1"></path></g></svg>