<svg xmlns="http://www.w3.org/2000/svg" viewBox="0 0 512 512" style="height: 512px; width: 512px;"><defs><radialGradient id="delapouite-acoustic-megaphone-gradient-0"><stop offset="0%" stop-color="#5372a5" stop-opacity="1"></stop><stop offset="100%" stop-color="#414f7d" stop-opacity="1"></stop></radialGradient></defs><path d="M5 5h502v502H5z" fill="url(#delapouite-acoustic-megaphone-gradient-0)" stroke="#0e97ec" stroke-opacity="1" stroke-width="5"></path><g class="" transform="translate(0,1)" style=""><path d="M443.535 120.186l-112 64 8.93 15.628 112-64-8.93-15.628zM297 153v206h17.973V153H297zm-18 9.367L73 235.072v41.856l206 72.705V162.367zM39 240v32h18v-32H39zm297 7v18h128v-18H336zM99.332 300.89l-14.8 40.215L181.02 379.7l16.11-40.364-16.716-6.672-9.434 23.635-63.51-25.405 8.755-23.786-16.893-6.22zm241.133 11.296l-8.93 15.628 112 64 8.93-15.628-112-64z" fill="#fff" fill-opacity="1"></path></g></svg>