<svg xmlns="http://www.w3.org/2000/svg" viewBox="0 0 512 512" style="height: 512px; width: 512px;"><defs><filter id="shadow-3" height="300%" width="300%" x="-100%" y="-100%"><feFlood flood-color="rgba(255, 255, 255, 1)" result="flood"></feFlood><feComposite in="flood" in2="SourceGraphic" operator="atop" result="composite"></feComposite><feGaussianBlur in="composite" stdDeviation="15" result="blur"></feGaussianBlur><feOffset dx="0" dy="0" result="offset"></feOffset><feComposite in="SourceGraphic" in2="offset" operator="over"></feComposite></filter><radialGradient id="delapouite-ecology-gradient-0"><stop offset="0%" stop-color="#b98c72" stop-opacity="1"></stop><stop offset="100%" stop-color="#8d6239" stop-opacity="1"></stop></radialGradient></defs><path d="M5 5h502v502H5z" fill="url(#delapouite-ecology-gradient-0)" stroke="#e28436" stroke-opacity="1" stroke-width="5"></path><g class="" transform="translate(0,0)" style=""><g><path d="M256 23C184.31 23 126 81.31 126 153C126 224.69 184.31 283 256 283C327.69 283 386 224.69 386 153C386 81.31 327.69 23 256 23Z" class="" fill="#fff" fill-opacity="1"></path><path d="M247.67 54.127L235.896 89.373L288.041 83.91L282.855 66.453L297.479 70.502L297.479 89.869L320.322 91.359L315.854 73.979L327.861 67.025C352.41 87.553 368 118.417 368 153C368 169.668 364.375 185.471 357.875 199.672L331.745 204.094L331.745 235.572C326.76 240.146 321.372 244.259 315.646 247.862L304.43 230.414L282.578 236.374L288.718 260.16C278.11 263.379 267.085 265.01 256 265C224.987 265 196.963 252.465 176.703 232.174L196.663 229.422L210.073 203.1L167.361 181.746L197.656 155.92L171.336 134.07L144.443 143.033C147.555 107.585 167.096 76.93 195.437 58.715L201.133 104.271L247.67 54.127Z" class="selected" fill="#50e3c2" fill-opacity="1" filter="url(#shadow-3)"></path><path d="M286.55 118.344L250.38 141.52L281.986 169.613L304.813 162.941L302.705 190.332L344.495 179.797L328.691 143.979L303.408 144.33L325.883 125.016L286.551 118.344Z" class="" fill="#fff" fill-opacity="1"></path><path d="M248.977 158.727L229.662 167.154L243.357 177.338L248.977 158.727Z" class="" fill="#fff" fill-opacity="1"></path><path d="M203.615 161.881L190.207 177.771L227.354 203.879L203.615 161.881Z" class="" fill="#fff" fill-opacity="1"></path><path d="M263.375 170.666L249.68 196.303L282.69 218.777L271.1 202.271L285.498 185.064L263.375 170.666Z" class="" fill="#fff" fill-opacity="1"></path><path d="M60.17 198.061C51.352 197.924 42.327 209.154 42.275 237.943C42.197 282.096 37.919 294.559 58.352 344.494C73.335 381.112 80.054 409.257 128 432C133.68 452.022 131.413 456.73 127.56 473.84C123.964 489.814 160.983 492.75 188.094 479.293C217.185 463.425 214.744 419.736 209.547 390.109C203.503 355.655 184.487 348.494 168.004 333.777C150.889 309.302 146.906 264.964 119.148 247.078C113.351 243.343 83.778 239.551 124.41 341.02C70.839 327.752 80.597 266.247 76.723 220.71C75.569 207.149 67.95 198.18 60.17 198.06Z" class="" fill="#fff" fill-opacity="1"></path><path d="M451.83 198.061C444.05 198.181 436.431 207.149 435.277 220.711C431.403 266.247 441.161 327.752 387.59 341.02C428.223 239.55 398.649 243.343 392.852 247.078C365.094 264.964 361.112 309.302 343.996 333.778C327.514 348.494 308.496 355.655 302.453 390.109C297.256 419.736 294.815 463.425 323.906 479.293C351.017 492.749 388.036 489.814 384.439 473.84C380.587 456.73 378.32 452.022 384 432C431.946 409.257 438.665 381.112 453.648 344.494C474.081 294.559 469.803 282.096 469.725 237.944C469.673 209.154 460.648 197.924 451.83 198.061Z" class="" fill="#fff" fill-opacity="1"></path></g></g></svg>