<?xml version="1.0" encoding="UTF-8"?>
<svg id="-tier-5" xmlns="http://www.w3.org/2000/svg" viewBox="0 0 159.67 635.68">q
  <g id="-tier-5-inner">
    <polygon data-name="" class="cls-1" points=".5 .5 159.16 .5 159.16 123.34 79.83 143.81 .5 123.34 .5 .5"/>
    <polygon data-name="" class="cls-1" points=".5 246.17 .5 123.34 79.83 143.81 159.16 123.34 159.16 246.17 79.83 266.65 .5 246.17"/>
    <polygon data-name="" class="cls-1" points=".5 369.3 .5 246.46 79.83 266.93 159.16 246.46 159.16 369.3 79.83 389.77 .5 369.3"/>
    <polygon data-name="" class="cls-1" points=".5 491.85 .5 369.01 79.83 389.48 159.16 369.01 159.16 491.85 79.83 512.32 .5 491.85"/>
    <polygon data-name="" class="cls-1" points=".51 614.69 .51 491.85 79.84 512.32 159.17 491.85 159.17 614.69 79.84 635.16 .51 614.69"/>
  </g>
</svg>