<svg width="2560" height="1440" xmlns="http://www.w3.org/2000/svg"><defs><linearGradient id="a" gradientTransform="rotate(90)"><stop offset="5%" stop-color="#c575ac"/><stop offset="95%" stop-color="#d397c0"/></linearGradient><linearGradient id="b" gradientTransform="rotate(90)"><stop offset="5%" stop-color="#e58fb5"/><stop offset="95%" stop-color="#ebabc7"/></linearGradient><linearGradient id="c" gradientTransform="rotate(90)"><stop offset="5%" stop-color="#f08895"/><stop offset="95%" stop-color="#f3a5af"/></linearGradient><linearGradient id="d" gradientTransform="rotate(90)"><stop offset="5%" stop-color="#f27465"/><stop offset="95%" stop-color="#f5968b"/></linearGradient><linearGradient id="e" gradientTransform="rotate(90)"><stop offset="5%" stop-color="#f4744b"/><stop offset="95%" stop-color="#f69678"/></linearGradient><linearGradient id="f" gradientTransform="rotate(90)"><stop offset="5%" stop-color="#f69051"/><stop offset="95%" stop-color="#f8ab7c"/></linearGradient><linearGradient id="g" gradientTransform="rotate(90)"><stop offset="5%" stop-color="#f7ac56"/><stop offset="95%" stop-color="#f9c080"/></linearGradient><linearGradient id="h" gradientTransform="rotate(90)"><stop offset="5%" stop-color="#f6cb5d"/><stop offset="95%" stop-color="#f8d885"/></linearGradient><linearGradient id="i" gradientTransform="rotate(90)"><stop offset="5%" stop-color="#f5e963"/><stop offset="95%" stop-color="#f7ee8a"/></linearGradient><linearGradient id="j" gradientTransform="rotate(90)"><stop offset="5%" stop-color="#cede66"/><stop offset="95%" stop-color="#dae68c"/></linearGradient><linearGradient id="k" gradientTransform="rotate(90)"><stop offset="5%" stop-color="#a1cd69"/><stop offset="95%" stop-color="#b8d98e"/></linearGradient><linearGradient id="l" gradientTransform="rotate(90)"><stop offset="5%" stop-color="#83c27c"/><stop offset="95%" stop-color="#a2d19c"/></linearGradient><linearGradient id="m" gradientTransform="rotate(90)"><stop offset="5%" stop-color="#72bd9b"/><stop offset="95%" stop-color="#95cdb4"/></linearGradient><linearGradient id="n" gradientTransform="rotate(90)"><stop offset="5%" stop-color="#6cbdb7"/><stop offset="95%" stop-color="#90cdc9"/></linearGradient><linearGradient id="o" gradientTransform="rotate(90)"><stop offset="5%" stop-color="#7fc9cb"/><stop offset="95%" stop-color="#9fd6d8"/></linearGradient><linearGradient id="p" gradientTransform="rotate(90)"><stop offset="5%" stop-color="#92d5df"/><stop offset="95%" stop-color="#addfe7"/></linearGradient></defs><path fill="#a55ca3" d="M0 0h2560v1440H0z"/><path d="M0 84c96.1-1.871 192.2-3.742 271 0 78.8 3.742 140.3 13.097 222 12 81.7-1.097 183.6-12.646 278-15 94.4-2.354 181.297 4.488 260 8 78.703 3.512 149.212 3.694 232 0 82.788-3.694 177.855-11.263 271-11 93.145.263 184.369 8.36 265 10 80.631 1.64 150.67-3.174 238-2 87.33 1.174 191.951 8.335 282 9 90.049.665 165.524-5.168 281-11l-40 1356H0Z" fill="url(#a)"/><path d="M0 169c78.264-1.037 156.527-2.073 238-5 81.473-2.927 166.154-7.743 256-4 89.846 3.743 184.855 16.046 275 15 90.145-1.046 175.425-15.44 260-15 84.575.44 168.447 15.713 250 19 81.553 3.287 160.79-5.412 246-6 85.21-.588 176.397 6.935 259 3 82.603-3.935 156.624-19.329 247-19 90.376.329 197.107 16.38 288 21 90.893 4.62 165.946-2.19 281-9l-40 1271H0Z" fill="url(#b)"/><path d="M0 254c88.92.655 177.839 1.309 257 2 79.161.691 148.565 1.418 236 1 87.435-.418 192.901-1.982 280-3 87.099-1.018 155.83-1.489 241 0 85.17 1.489 186.777 4.938 272 2 85.223-2.938 154.063-12.262 239-11 84.937 1.262 185.973 13.112 278 15 92.027 1.888 175.046-6.184 252-10 76.954-3.816 147.844-3.376 231-2s178.578 3.688 314 6l-40 1186H0Z" fill="url(#c)"/><path d="M0 338c77.148 6.186 154.295 12.372 239 9 84.705-3.372 176.967-16.302 267-18 90.033-1.698 177.838 7.836 268 8 90.162.164 182.683-9.04 268-8 85.317 1.04 163.432 12.325 250 17 86.568 4.675 181.589 2.739 261 1 79.411-1.739 143.213-3.28 221-3 77.787.28 169.558 2.383 265-1 95.442-3.383 194.555-12.252 282-14 87.445-1.748 163.223 3.626 279 9l-40 1102H0Z" fill="url(#d)"/><path d="M0 423c78.204-7.009 156.408-14.017 242-10 85.592 4.017 178.572 19.06 265 19 86.428-.06 166.304-15.225 250-18 83.696-2.775 171.21 6.84 263 13 91.79 6.16 187.853 8.866 273 6 85.147-2.866 159.376-11.304 235-15 75.624-3.696 152.641-2.65 245-1 92.359 1.65 200.058 3.906 290 7 89.942 3.094 162.126 7.027 242 7 79.874-.027 167.437-4.013 295-8l-40 1017H0Z" fill="url(#e)"/><path d="M0 508c81.71-2.866 163.419-5.732 253-5 89.581.732 187.034 5.062 274 6 86.966.938 163.446-1.517 249-5s180.184-7.993 261-8c80.816-.007 147.82 4.488 231 8 83.18 3.512 182.537 6.04 269 7s160.031.35 241-3 169.338-9.44 259-9c89.662.44 180.618 7.412 268 10s171.191.794 295-1l-40 932H0Z" fill="url(#f)"/><path d="M0 592c86.145 3.71 172.29 7.421 262 5 89.71-2.421 182.986-10.974 268-14 85.014-3.026 161.766-.527 241 3 79.234 3.527 160.95 8.08 243 7 82.05-1.08 164.432-7.794 249-9 84.568-1.206 171.32 3.097 261 5s182.285 1.407 270 4 170.539 8.275 259 9c88.461.725 182.56-3.507 268-6s162.22-3.246 279-4l-40 848H0Z" fill="url(#g)"/><path d="M0 677c76.257-.592 152.514-1.185 239-1 86.486.185 183.2 1.147 273-1 89.8-2.147 172.684-7.404 262-8 89.316-.596 185.063 3.468 266 7 80.937 3.532 147.064 6.531 233 4 85.936-2.531 191.682-10.593 280-13 88.318-2.407 159.209.84 243 6s180.482 12.236 265 15c84.518 2.764 156.862 1.218 238-1s171.069-5.11 301-8l-40 763H0Z" fill="url(#h)"/><path d="M0 762c94.238-4.62 188.475-9.242 274-7 85.525 2.242 162.336 11.346 246 13 83.664 1.654 174.18-4.141 255-8s151.943-5.782 239-4c87.057 1.782 190.05 7.268 277 12 86.95 4.732 157.86 8.71 237 4 79.14-4.71 166.512-18.108 256-18 89.488.108 181.093 13.721 265 14 83.907.279 160.116-12.778 244-16 83.884-3.222 175.442 3.389 307 10l-40 678H0Z" fill="url(#i)"/><path d="M0 847c88.998-3.167 177.996-6.333 263-3 85.004 3.333 166.012 13.167 250 13 83.988-.167 170.954-10.334 256-12 85.046-1.666 168.171 5.168 250 9 81.829 3.832 162.36 4.66 252 2 89.64-2.66 188.387-8.81 279-12 90.613-3.19 173.092-3.422 253-3 79.908.422 157.244 1.498 242 3s176.93 3.43 264 4c87.07.57 169.035-.215 291-1l-40 593H0Z" fill="url(#j)"/><path d="M0 931c90.288 2.203 180.576 4.407 262 4 81.424-.407 153.983-3.423 240-3 86.017.423 185.49 4.285 277 1 91.51-3.285 175.057-13.718 258-11 82.943 2.718 165.284 18.589 247 18 81.716-.589 162.808-17.636 249-20 86.192-2.364 177.484 9.954 264 11 86.516 1.046 168.254-9.18 251-7 82.746 2.18 166.499 16.766 252 20 85.501 3.234 172.75-4.883 300-13l-40 509H0Z" fill="url(#k)"/><path d="M0 1016c75.258-.671 150.516-1.342 240-1 89.484.342 193.195 1.697 287 2 93.805.303 177.705-.446 256-3 78.295-2.554 150.984-6.912 238-4 87.016 2.912 188.36 13.096 274 17 85.64 3.904 155.575 1.53 237-1 81.425-2.53 174.34-5.214 258-7 83.66-1.786 158.062-2.673 245-2 86.938.673 186.41 2.907 276 3 89.59.093 169.295-1.953 289-4l-40 424H0Z" fill="url(#l)"/><path d="M0 1101c87.06-1.56 174.12-3.12 264 0s182.582 10.92 263 12 148.553-4.56 227-9 167.205-7.683 253-7c85.795.683 168.628 5.292 259 5 90.372-.292 188.282-5.484 281-7 92.718-1.516 180.244.645 262 2s157.742 1.903 243 4c85.258 2.097 179.788 5.742 266 6 86.212.258 164.106-2.871 282-6l-40 339H0Z" fill="url(#m)"/><path d="M0 1185c93.124 6.228 186.248 12.457 271 11 84.752-1.457 161.131-10.598 239-14 77.869-3.402 157.227-1.064 248 3s192.96 9.856 281 12c88.04 2.144 161.935.641 239-1s157.302-3.42 242-7c84.698-3.58 173.857-8.96 262-9 88.143-.04 175.27 5.258 258 4 82.73-1.258 161.066-9.074 247-10 85.934-.926 179.467 5.037 313 11l-40 255H0Z" fill="url(#n)"/><path d="M0 1270c79.989-4.378 159.978-8.757 251-5 91.022 3.757 193.078 15.648 275 18 81.922 2.352 143.71-4.836 227-11 83.29-6.164 188.083-11.304 277-13 88.917-1.696 161.959.053 245 3s176.083 7.094 269 7c92.917-.094 185.71-4.427 265-6 79.29-1.573 145.078-.385 222-1s164.978-3.033 255-2c90.022 1.033 182.011 5.516 314 10l-40 170H0Z" fill="url(#o)"/><path d="M0 1355c80.496-2.625 160.992-5.25 249-6 88.008-.75 183.527.373 275 4 91.473 3.627 178.9 9.757 257 6 78.1-3.757 146.875-17.401 230-16 83.125 1.401 180.6 17.847 269 20 88.4 2.153 167.726-9.987 248-16s161.496-5.9 252-3c90.504 2.9 190.29 8.589 278 13 87.71 4.411 163.346 7.546 245 7 81.654-.546 169.327-4.773 297-9l-40 85H0Z" fill="url(#p)"/></svg>