<?xml version="1.0" encoding="UTF-8"?>
<svg id="Layer_2" data-name="Layer 2" xmlns="http://www.w3.org/2000/svg" viewBox="0 0 1916.81 1898.04">
  <defs>
    <style>
      .cls-1 {
        fill: #231f20;
      }
    </style>
  </defs>
  <g id="Layer_1-2" data-name="Layer 1">
    <g>
      <path class="cls-1" d="M440.7,1614.52l4.14,61.41-222.1,222.1L0,1675.3l250.42-250.42,4.46,61.09-154.01,154.01,157.19,157.19,182.65-182.65Z"/>
      <path class="cls-1" d="M676.49,1378.74l4.14,61.41-188.05,188.05-222.74-222.74,66.5-66.5,189.96,189.96,150.19-150.19Z"/>
      <path class="cls-1" d="M757.63,917.67l222.74,222.74-73.19,73.19-94.82-94.82-103.42,103.41,94.82,94.82-71.28,71.28-222.74-222.74,247.88-247.88ZM613.16,1127.69l62.05,62.05,102.46-102.46-62.05-62.05-102.46,102.46Z"/>
      <path class="cls-1" d="M805.35,869.95l66.82-66.82,222.74,222.74-66.82,66.82-222.74-222.74Z"/>
      <path class="cls-1" d="M1120.37,1000.41l-222.74-222.74,226.24-48.05,48.05-226.24,222.74,222.74-65.87,65.87-127.6-127.6-26.09,116.46-115.82,25.46,127.6,127.6-66.5,66.5Z"/>
      <path class="cls-1" d="M1636.8,418.43l61.41,4.14-249.47,249.47-222.74-222.74,250.1-250.1,4.46,61.09-154.96,154.96,62.37,62.37,168.33-168.33,32.78,32.77-168.33,168.33,62.05,62.05,154.01-154.01Z"/>
      <path class="cls-1" d="M1675.3,0l182.33,41.05,59.19,162.92-198.88,198.87-222.74-222.74L1675.3,0ZM1751.67,303.56l67.46-67.46-27.37-129.19-129.82-28-67.46,67.46,157.19,157.19Z"/>
    </g>
  </g>
</svg>