<?xml version="1.0" encoding="UTF-8"?>
<!-- Uploaded to: SVG Find, www.svgrepo.com, Generator: SVG Find Mixer Tools -->
<svg width="800px" height="800px" version="1.1" viewBox="144 144 512 512" xmlns="http://www.w3.org/2000/svg">
 <defs>
  <clipPath id="a">
   <path d="m148.09 148.09h503.81v503.81h-503.81z"/>
  </clipPath>
 </defs>
 <g clip-path="url(#a)">
  <path d="m584.11 148.09c-10.852 0-21.055 4.2266-28.73 11.902l-92.133 92.133 2.6211 5.2383c3.5469 7.0898 5.8398 14.812 6.7812 22.688-5.0469-1.2656-10.328-1.9453-15.766-1.9453-35.844 0-65.008 29.16-65.008 65.008 0 8.6172 1.7031 16.844 4.7617 24.379l-16.949 16.949-20.852-20.852-8.2344-49.398-37.277-27.961h-30.453l-6.4414 6.4414c-3.5547 3.5508-9.332 3.5508-12.887 0-3.5547-3.5547-3.5547-9.332 0-12.887l21.113-21.113-19.84-7.4414c-35.086-13.152-65.34-37.895-85.199-69.668l-6.8398-10.945c-2.457-3.9297-6.6914-6.2773-11.324-6.2773-7.3633 0-13.355 5.9922-13.355 13.355 0 45.77 16.676 89.879 46.961 124.2l78.871 89.387 49.035 8.1719 20.852 20.852-150.97 150.98-44.75 8.9492v6.6602c0 35.844 29.16 65.008 65.008 65.008h6.6602l8.9492-44.75 150.97-150.97 142.84 142.84 8.9531 44.75h6.6641c5.3945 0 10.551-1.5352 14.98-4.3906 6.0078 7.7539 15.328 12.516 25.648 12.516 17.922 0 32.504-14.582 32.504-32.504 0-10.324-4.7617-19.641-12.516-25.648 2.8516-4.4297 4.3906-9.5859 4.3906-14.98v-6.6641l-44.75-8.9492-142.84-142.84 16.949-16.949c7.5352 3.0586 15.758 4.7617 24.379 4.7617 35.844 0 65.008-29.16 65.008-65.008 0-5.4375-0.67969-10.715-1.9414-15.766 7.875 0.94141 15.598 3.2383 22.688 6.7812l5.2383 2.6211 92.133-92.133c7.668-7.6758 11.895-17.879 11.895-28.73v-67.797zm-17.234 23.391c4.6055-4.6055 10.727-7.1406 17.238-7.1406h40.055l-81.258 81.258h-50.148zm-78.516 163.51c-2.9453-11.406-11.945-20.402-23.348-23.348v-16.59c20.383 3.4336 36.504 19.555 39.941 39.941zm-79.543 16.25h16.59c2.9453 11.406 11.945 20.402 23.348 23.348v16.59c-20.379-3.4336-36.5-19.555-39.938-39.938zm48.066 8.125c-8.9609 0-16.25-7.293-16.25-16.25 0-8.9609 7.293-16.25 16.25-16.25 8.9609 0 16.25 7.293 16.25 16.25 0.003906 8.9609-7.2891 16.25-16.25 16.25zm-8.125-64.316v16.59c-11.406 2.9453-20.402 11.945-23.348 23.348h-16.59c3.4336-20.379 19.555-36.5 39.938-39.938zm-106.21 69.656-18.465 18.465-29.055-4.8438 42.676-42.676zm-177.86-176.38 1.1562 1.8516c21.027 33.645 52.711 60.09 89.52 74.82l-3.3008 3.3008c-9.8906 9.8906-9.8906 25.98 0 35.867 9.8867 9.8906 25.98 9.8906 35.867 0l1.6836-1.6836h18.305l22.84 17.133-52.266 52.266-71.238-80.734c-25.309-28.684-40.215-64.852-42.566-102.82zm173.68 203.55 12.887-12.887 16.949 16.945-12.887 12.891zm-3.3633 60.246 12.883 12.887-49.449 49.449-12.887-12.883zm-170.2 141.35 29.391-5.8789 18.227 18.227-5.8789 29.391c-21.637-2.9258-38.812-20.102-41.738-41.738zm56.438-1.8125-12.887-12.887 65.707-65.703 12.887 12.883zm357.54 43.996c-5.5469 0-10.656-2.8984-13.609-7.4023l22.461-22.461c4.5 2.9531 7.4023 8.0625 7.4023 13.609 0 8.9609-7.293 16.254-16.254 16.254zm4.7617-48.758-37.266 37.266c-0.56641 0.56641-1.1836 1.0703-1.8398 1.5l-5.5938-27.965 18.23-18.227 27.965 5.5938c-0.42969 0.64844-0.92969 1.2656-1.4961 1.832zm-40.633-16.25-12.887 12.887-138.84-138.84 12.887-12.887zm-183.53-117.13-12.883-12.887 58.461-58.461c3.6719 4.8711 8.0117 9.2148 12.887 12.887zm105.64-62.332v-16.59c11.406-2.9453 20.402-11.945 23.348-23.348h16.59c-3.4336 20.379-19.555 36.5-39.938 39.938zm24.344-104.35c-0.13281-8.4688-1.5547-16.918-4.168-24.98h52.957v52.957c-8.0625-2.6133-16.512-4.0352-24.98-4.168-5.7148-9.8633-13.941-18.094-23.809-23.809zm139.16-53.707-74.121 74.117v-50.148l81.258-81.258v40.055c0.003906 6.5078-2.5352 12.629-7.1367 17.234z"/>
 </g>
</svg>