<?xml version="1.0" encoding="UTF-8"?>
<!-- Uploaded to: SVG Find, www.svgrepo.com, Generator: SVG Find Mixer Tools -->
<svg fill="#000000" width="800px" height="800px" version="1.1" viewBox="144 144 512 512" xmlns="http://www.w3.org/2000/svg">
 <g>
  <path d="m620.92 424.92c2.0742-7.2344 2.3516-11.422-2.7891-17.086 0.57812-2.9414-0.94922-5.1172-3.2109-6.0078-2.7422-1.0742-24.289-14.727-31.516-18.809 34.008-46.785 39.707-45.395 36.172-51.184-1.168-1.9258-3.4414-2.8789-5.6367-2.3398-37.633 9.1055-108.45 2.2734-149.13 11.145-30.477-38.965-81.738-74.559-119.83-108.55-1.7734-1.5703-4.3672-1.7539-6.3242-0.4375-67.848 45.391-94.793 100.62-137.66 128.46-2.4531 1.5898-3.1172 4.9414-1.3867 7.3594 6.582 9.1758 14.266 17.695 22.535 25.82-10.801 13.5-24.926 29.109-32.316 44.406-1.0547 2.1836-0.62109 5.1172 2.2266 6.6797-3.8945 4.9062-10.492 13.801-13.086 16.773-2.0391 2.3398-1.7969 6.2812 1.8281 7.9492l0.046875 0.94922c0.32812 6.9492 4.9141 12.711 11.172 14 36.305 7.4766 74.105 15.355 110.69 21.059 5.1484 0.80078 9.2305 4.2266 11.742 8.793 6.0586 11.012 17.301 13.379 18.348 13.77 4.6875 1.7578 11.414 2.2812 18.062-0.46875 3.8555-1.5938 7.8555-2.8516 11.75-1.3555 46.969 18 92.477 37.375 139.43 55.391 4.9961 1.918 10.594 0.125 13.895-4.4531 93.043-128.96 98.961-130.82 105-151.87zm-14.891-16.145c-29.582 50.629-62.766 99.324-98.684 144.81-4.457 5.6484-5.1758 5.5781-10.52 3.668-48.277-17.156-95.551-35.754-143.42-53.398-1.4844-0.53125-3.1367-0.38281-4.4922 0.44531-4.625 2.8242-10.539 2.7852-15.047-0.11328-7.3867-4.7109-10.207-4.2539-10.168-8.418 0.019532-2.5352-1.7852-4.7031-4.2773-5.1406-44.48-7.8438-84.367-20.18-127.27-29.418 0.53906-0.69922 10.148-13.113 10.359-13.43 45.68 13.836 138.12 49.707 144.32 47.641 38.176-12.781 118.71 3.4023 159.97-0.64844 1.5586-0.14844 2.9648-0.99609 3.8242-2.3047 22.586-34.406 43.5-68.18 66.75-100.97 5.7266 3.1445 21.52 13.152 28.66 17.277zm-4.1641-66.574c-37.004 44.754-65.918 92.734-98.523 142.48-38.742 2.9609-108.49-10.492-150.63-1.5039 24.508-27.688 48.039-55.922 70.809-83.324 13.41-16.141 26.891-32.344 40.699-48.613 0.16016-0.023437 0.31641 0.019531 0.47656-0.019531 33.957-8.2148 96.082-3.4648 137.17-9.0156zm-390.68 23.5c41.098-29.09 67.973-80.602 129.92-123.21 37.016 32.566 85.578 66.891 114.41 102.99-38.117 44.941-74.008 89.84-113.34 134.07-38.961-39.977-97.902-70.941-130.98-113.84zm18.488 34.738c30.586 27.945 68.152 51.281 97.602 79.051-39.227-12.504-87.34-31.527-125.21-42.73 7.0273-11.996 17.801-24.125 27.609-36.32z"/>
  <path d="m340.45 420.3c1.9102 0.14062 3.8125 0.20703 5.6992 0.20703 21.551 0 41.227-8.9453 52.285-24.047 12.109-16.539 13.73-40.211 4.1328-60.293-18.762-39.262-81.945-63.996-115.67-30.613-18.648 18.469-22.992 49.707-10.324 74.293 11.641 22.594 36.715 38.473 63.875 40.453zm-60.047-62.746c14.621 3.9258 29.43 8.1914 44.102 12.582-0.10547 0.71094-4.1914 28.16-5.1289 34.559-19.688-8.0625-35.895-24.359-38.973-47.141zm45.637 2.2383c-6.8125-2.0352-13.656-4.0352-20.496-6 7.0664-1.3672 14.199-2.8984 21.289-4.4609 0.003907 6.9844-0.60547 8.7383-0.79297 10.461zm15.164 50.184c-3.7969-0.27734-7.5117-0.96484-11.172-1.8359 6.9297-9.3594 14.957-19.359 23.262-29.195 12.594 3.9258 24.859 7.8203 36.645 11.566-9.9766 13.469-28.691 20.906-48.734 19.465zm-4.4336-73.465c-0.37891-7.3125-0.875-15.125-0.83594-21.758 4.0312 7.832 7.2188 15.387 9.9648 19.734-3.0508 0.67188-6.0938 1.3516-9.1289 2.0234zm15.246 7.2383c2.7695 4.0508 5.6406 8.0508 8.1836 11.438-3.4219 3.8477-6.8945 7.8242-10.355 11.848-4.5664-1.4102-9.168-2.8242-13.789-4.2266 0.28906-2.7539 1.2695-5.3789 1.1172-15.777 4.918-1.1016 9.8789-2.207 14.844-3.2812zm-17.496 29.414c2.6914 0.82031 5.375 1.6367 8.0469 2.4648-3.5078 4.1992-6.9609 8.4102-10.285 12.59 0.79688-5.3164 1.4336-9.6367 2.2383-15.055zm32.129-9.6445c7.2539 9.0586 0.46484 0.21094 9.2383 11.672-5.0234-1.5898-10.113-3.1875-15.262-4.7969 2.0117-2.3242 4.0234-4.6172 6.0234-6.875zm-3.625-22.059c3.9062-0.78125 7.7891-1.5156 11.625-2.1836-2.3906 2.5742-4.8633 5.2656-7.3906 8.0547-1.5-2.0234-2.8828-3.9531-4.2344-5.8711zm31.941 39.766c-2.6445-1.4609-9.9102-11.055-12.664-14.699-4.6992-6.2227-3.1133-3.8281-8.6484-10.836 6.2734-6.9375 12.207-13.297 17.441-18.758 0.71875 1.2344 1.5312 2.4414 2.1328 3.6992 6.2227 13.02 6.6367 28.211 1.7383 40.594zm-10.66-53.867c-8.9922 1.2383-18.234 2.8867-27.578 4.8203-7.1602-11.02-9.6992-20.355-16.188-30.297 16.816 3.6133 32.992 13.168 43.766 25.477zm-57.406-27.105c0.027343 0 0.058593 0.003906 0.089843 0.003906-2.4062 10.18-1.0898 26.285-0.46484 38.539-48.715 10.82-39.352 6.6562-46.539 8.7812 1.0625-27.207 19.074-47.324 46.914-47.324z"/>
  <path d="m460.61 385.86c6.668 9.0312 20.777 10.727 29.383 3.5938 3.4102-2.8281 6.168-7.2734 8.5625-7.7969 3.1836-0.72656 7.7539 4.5977 13.23 7.5078 12.254 6.5156 26.637-0.09375 34.363-3.6406 2.5977-1.1914 3.7383-4.2656 2.543-6.8594-1.1914-2.5938-4.2539-3.7422-6.8633-2.5469-8.4492 3.8828-18.066 7.7109-25.18 3.9102-5.1523-2.7383-11.336-10.438-20.328-8.4805-6.5156 1.4414-9.7344 7.2891-12.93 9.9336-4.1367 3.4297-11.379 2.3867-14.449-1.7656-1.707-2.2969-4.9414-2.7852-7.2422-1.0938-2.3008 1.6953-2.7891 4.9375-1.0898 7.2383z"/>
  <path d="m511.54 430.99-18.047 1.9023c-7.043 0.72656-7.668 0.10156-11.055-2.5352-2.4219-1.8867-5.4375-4.2344-9.5977-4.543-7.2422-0.46094-11.617 5.0859-15.449 6.9766-2.8984 1.4023-7.0859 1.0391-10.934-0.97656-4.1094-2.1562-7.6953-5.8164-11.156-9.3555-2-2.0508-5.2773-2.0703-7.3242-0.082031-2.043 2-2.0742 5.2773-0.078125 7.3203 7.3672 7.5234 14.789 14.289 25.473 14.289 11.031 0 15.324-8.3281 18.691-7.8438 2.1562 0.15234 5.1094 4.0078 9.5586 5.9531 5.9727 2.6172 11.762 1.2188 31.004-0.80078 2.8438-0.30469 4.9023-2.8516 4.6055-5.6875-0.30469-2.8594-2.8516-4.9023-5.6914-4.6172z"/>
  <path d="m502.39 268.92c3.9805-1.8516 3.9883-7.5273 0-9.3828-8.1133-3.7812-13.805-9.9258-15.812-16.484 0.51953-3.6133 0.41406-7.3203-0.37891-10.984-0.51172-2.3672-2.6055-4.0625-5.0273-4.0781h-0.03125c-2.4141 0-4.5078 1.6719-5.043 4.0234-0.85156 3.7266-0.86328 7.5156-0.11719 11.215-1.4336 6.2148-5.582 11.996-11.598 15.574-3.9102 2.3203-3.1289 8.2227 1.2578 9.4375 8.1562 2.2656 13.141 11.605 14.266 20.293 0.015625 1.2148 0.10938 2.4336 0.28125 3.6445 0.39844 2.7734 2.9102 4.6719 5.5547 4.4297 2.7305-0.22266 4.8125-2.5391 4.75-5.2773-0.027344-1.1445-0.10938-2.3125-0.24219-3.4844 0.050782-7.8711 4.8398-15.527 12.141-18.926zm-17.648 2.5234c-2.1289-3.5469-4.832-6.6914-8.0859-9.1133 1.9766-1.9414 3.6914-4.0781 5.125-6.3477 2.3438 3.1523 5.2773 6.0508 8.7305 8.5469-2.2422 2.0195-4.1836 4.3594-5.7695 6.9141z"/>
  <path d="m543.7 243.16c3.9766-1.832 3.9961-7.5234 0.007812-9.3828-3.0586-1.4297-5.3047-3.6875-6.2109-6.0391 0.50391-4.7383-0.54297-9.7109-5.332-9.7383h-0.03125c-4.8555 0-6.0078 5.2031-5.2305 10.043-0.64062 2.1758-2.1875 4.1992-4.3633 5.4922-3.9102 2.3203-3.1211 8.2227 1.2617 9.4375 2.7227 0.75391 4.6094 4.3008 5.0938 7.6367 0.019531 0.66016 0.074219 1.3203 0.16797 1.9883 0.39453 2.7383 2.8711 4.6641 5.5586 4.4219 2.7305-0.22266 4.8086-2.5391 4.7461-5.2773-0.015626-0.58594-0.054688-1.1719-0.11328-1.7734 0.074219-2.8047 1.8438-5.5938 4.4453-6.8086z"/>
 </g>
</svg>